<svg xmlns="http://www.w3.org/2000/svg" viewBox="0 0 170.08 170.08"><defs><style>.cls-1{fill:#fff;}</style></defs><g id="Capa_2" data-name="Capa 2"><g id="Capa_1-2" data-name="Capa 1"><path class="cls-1" d="M160.69,0H9.39A9.38,9.38,0,0,0,0,9.39v151.3a9.38,9.38,0,0,0,9.39,9.39H90.84V104.22H68.68V78.55H90.84V59.62c0-22,13.42-33.93,33-33.93a182.58,182.58,0,0,1,19.8,1v23H130.07c-10.66,0-12.72,5.07-12.72,12.5V78.55h25.42l-3.31,25.67H117.35v65.86h43.34a9.38,9.38,0,0,0,9.39-9.39V9.39A9.38,9.38,0,0,0,160.69,0Z"/></g></g></svg>