<svg xmlns="http://www.w3.org/2000/svg" viewBox="0 0 170.08 170.11"><defs><style>.cls-1{fill:#fff;}</style></defs><g id="Capa_2" data-name="Capa 2"><g id="Capa_1-2" data-name="Capa 1"><path class="cls-1" d="M169.65,50c-.4-9-1.86-15.25-4-20.63A43.5,43.5,0,0,0,140.8,4.49c-5.41-2.1-11.6-3.56-20.63-4S108.17,0,85.07,0,59.09.1,50,.5s-15.25,1.86-20.63,4a41.51,41.51,0,0,0-15.09,9.84,41.72,41.72,0,0,0-9.8,15.05C2.39,34.76.93,40.94.53,50S0,62,0,85.07s.1,26,.5,35.06,1.86,15.25,4,20.64a43.58,43.58,0,0,0,24.89,24.89c5.42,2.09,11.6,3.55,20.64,4s12,.5,35.06.5,26-.1,35.06-.5,15.25-1.86,20.64-4a43.52,43.52,0,0,0,24.89-24.89c2.09-5.42,3.55-11.6,4-20.64s.5-12,.5-35.06S170,59.09,169.65,50Zm-15.32,69.46c-.37,8.3-1.76,12.79-2.93,15.78a28.23,28.23,0,0,1-16.15,16.15c-3,1.17-7.51,2.56-15.78,2.93-9,.4-11.67.49-34.36.49s-25.43-.09-34.37-.49C42.44,154,38,152.57,35,151.4a26.13,26.13,0,0,1-9.77-6.34,26.55,26.55,0,0,1-6.35-9.77c-1.16-3-2.56-7.52-2.92-15.79-.4-9-.5-11.66-.5-34.36s.1-25.42.5-34.36C16.28,42.47,17.68,38,18.84,35a25.94,25.94,0,0,1,6.38-9.77A26.45,26.45,0,0,1,35,18.88c3-1.17,7.51-2.56,15.79-2.93,9-.4,11.66-.5,34.36-.5s25.42.1,34.36.5c8.31.37,12.79,1.76,15.79,2.93a26.29,26.29,0,0,1,9.77,6.34A26.45,26.45,0,0,1,151.4,35c1.17,3,2.56,7.51,2.93,15.79.4,9,.5,11.66.5,34.36S154.73,110.49,154.33,119.47Z"/><path class="cls-1" d="M85.07,41.37a43.7,43.7,0,1,0,43.7,43.7A43.72,43.72,0,0,0,85.07,41.37Zm0,72.05a28.35,28.35,0,1,1,28.35-28.35A28.35,28.35,0,0,1,85.07,113.42Z"/><path class="cls-1" d="M140.7,39.65a10.2,10.2,0,1,1-10.2-10.21A10.2,10.2,0,0,1,140.7,39.65Z"/></g></g></svg>