<?xml version="1.0" encoding="utf-8"?>
<!-- Generator: Adobe Illustrator 22.1.0, SVG Export Plug-In . SVG Version: 6.00 Build 0)  -->
<svg version="1.1" id="Capa_1" xmlns="http://www.w3.org/2000/svg" xmlns:xlink="http://www.w3.org/1999/xlink" x="0px" y="0px"
	 viewBox="0 0 170.1 170.1" style="enable-background:new 0 0 170.1 170.1;" xml:space="preserve">
<style type="text/css">
	.st0{fill:#FFFFFF;}
</style>
<path class="st0" d="M157.5,0H12.6C5.6,0,0,5.5,0,12.2v145.7c0,6.7,5.6,12.2,12.6,12.2h144.9c6.9,0,12.6-5.5,12.6-12.2V12.2
	C170.1,5.5,164.5,0,157.5,0z M26.2,142.3V65.8h25.5v76.6H26.2z M39,55.3L39,55.3l-0.2,0c-8.5,0-14.1-5.9-14.1-13.2
	c0-7.5,5.7-13.2,14.4-13.2c8.7,0,14.1,5.7,14.2,13.2C53.4,49.4,47.8,55.3,39,55.3z M143.5,142.3H118v-41c0-10.3-3.7-17.3-12.9-17.3
	c-7,0-11.2,4.7-13.1,9.3c-0.7,1.6-0.8,3.9-0.8,6.2v42.8H65.8l0,0c0,0,0.3-69.4,0-76.6h25.4v10.8c3.4-5.2,9.4-12.6,22.9-12.6
	c16.7,0,29.3,10.9,29.3,34.5V142.3z"/>
</svg>
