<?xml version="1.0" encoding="utf-8"?>
<!-- Generator: Adobe Illustrator 26.0.1, SVG Export Plug-In . SVG Version: 6.00 Build 0)  -->
<svg version="1.1" id="Capa_1" xmlns="http://www.w3.org/2000/svg" xmlns:xlink="http://www.w3.org/1999/xlink" x="0px" y="0px"
	 viewBox="0 0 1692.7 299.2" style="enable-background:new 0 0 1692.7 299.2;" xml:space="preserve">
<style type="text/css">
	.st0{fill:#FFFFFF;}
	.st1{fill:#FDCB02;}
</style>
<polygon class="st0" points="0,2.3 0,60.7 73.7,60.7 73.7,280.5 138.7,280.5 138.7,60.7 212.4,60.7 212.4,2.3 "/>
<g>
	<path class="st0" d="M445.3,202.9c0,44.7-29.4,77.6-89,77.6H234.1V2.3h105c61.9,0,91.7,25.1,91.7,67.8c0,23.9-10.2,49-40.4,61.5
		v0.8C428.1,142.6,445.3,168.4,445.3,202.9 M298.4,113.2h31c19.6,0,35.3-9,35.3-26.7c0-15.7-11.4-26.7-37.6-26.7h-28.6L298.4,113.2
		L298.4,113.2z M377.1,193.9c0-17.2-12.9-29.4-41.1-29.4h-37.6v58.8H336C360.3,223.3,377.1,213.5,377.1,193.9"/>
	<polygon class="st0" points="823.5,2.3 736.5,280.5 676.5,280.5 629.9,97.5 629.5,97.5 580.9,280.5 521,280.5 434,2.3 503.7,2.3 
		550.8,173.1 551.5,173.1 594.6,2.3 663.6,2.3 705.9,173.1 706.7,173.1 753.7,2.3 	"/>
	<path class="st0" d="M952.1,230.7h-97.6l-16.1,49.8h-68.6L871.8,2.3h62.7l102.7,278.2h-68.6L952.1,230.7z M934.1,175.1l-30.6-93.7
		h-0.8l-30.2,93.7H934.1z"/>
	<polygon class="st1" points="1106.2,280.5 1003.5,2.5 1062.1,2.5 1164.8,280.5 	"/>
	<polygon class="st0" points="1253.5,14.8 1234.4,14.8 1234.4,2.5 1286.3,2.5 1286.3,14.8 1267.2,14.8 1267.2,71.7 1253.5,71.7 	"/>
	<path class="st0" d="M1337.9,43.1v28.5h-12.8V46.3c0-8.8-3.2-11.6-9.2-11.6c-6.8,0-11.2,4.3-11.2,12.8v24.1h-12.8V0h12.8v29.9h0.2
		c3.9-4.4,9.4-6.5,15.5-6.5C1330.6,23.4,1337.9,28.6,1337.9,43.1"/>
	<path class="st0" d="M1390.6,52h-33.4c1.6,5.7,6,9.1,12.2,9.1c5.1,0.1,8.8-2.1,11.4-5.3l8.3,7.7c-4.1,5.2-11,9-20.5,9
		c-13.9,0-24.4-9.7-24.4-24.6c0-14.4,10-24.4,23.6-24.4c13.9,0,23.3,10.1,23.3,24.1C1390.9,49,1390.9,51.2,1390.6,52 M1357.3,42.8
		h20.9c-1.3-5-4.7-8.3-10.2-8.3C1362.8,34.6,1358.7,37.4,1357.3,42.8"/>
	<path class="st0" d="M1234.6,106.9h22.9c21.9,0,35.9,14.2,35.9,34.6c0,20.3-13.4,34.4-35.6,34.4h-23.2L1234.6,106.9L1234.6,106.9z
		 M1256.9,163.8c13.4,0,22.3-9.6,22.3-22.3c0-12.9-8.9-22.4-21.4-22.4h-9.6v44.7H1256.9z"/>
	<path class="st0" d="M1299.9,114c0-4.3,3.6-7.8,7.9-7.8c4.4,0,8,3.5,8,7.8s-3.6,7.8-8,7.8C1303.5,121.8,1299.9,118.3,1299.9,114
		 M1301.3,128.5h12.7V176h-12.7V128.5z"/>
	<path class="st0" d="M1319.8,169.9l6.2-8.9c3.9,3.7,8,5.5,13.1,5.5c3.7,0,5.8-1.6,5.8-3.9c0-2.2-2.4-3.3-8.7-5.2
		c-7.8-2.6-14.6-6.3-14.6-15.5c0-8.6,7.4-14.2,17.1-14.2c6.6,0,12,1.8,17.3,5.9l-6.1,9.3c-3.7-3.5-7.9-5.1-11.4-5.1
		c-2,0-4.7,1.1-4.7,3.6c0,1.9,2.5,3.3,7.2,5.1c10.3,3.8,16.3,6,16.3,15.4c0,8.5-6,14.8-18.5,14.8
		C1331.5,176.8,1325.1,174.3,1319.8,169.9"/>
	<path class="st0" d="M1392.3,127.8v13.8c-1.3-0.1-2.6-0.1-3.3-0.1c-7.9,0-12.2,5.4-12.2,12.4V176h-12.7v-47.5h12.7v7h0.1
		c3.6-5.1,8.8-7.8,14.4-7.8C1391.7,127.7,1392.1,127.7,1392.3,127.8"/>
	<path class="st0" d="M1442.7,128.5V176H1430v-5.8h-0.2c-3.6,4.4-8.8,6.6-14.1,6.6c-10.2,0-17.4-5.2-17.4-19.6v-28.6h12.7v25.2
		c0,8.8,2.6,11.7,8.6,11.7c5.6,0,10.5-4.7,10.5-13.8v-23.1H1442.7z"/>
	<path class="st0" d="M1501.9,152.3c0,14.7-9.5,24.4-22.8,24.4c-6,0-10.7-2.2-14-6.1h-0.2v24.6h-12.7v-66.7h12.7v5.4h0.2
		c3.6-4.1,8.6-6.2,14.4-6.2C1492.3,127.7,1501.9,137.9,1501.9,152.3 M1488.9,152.4c0-8.2-5.3-13.3-12.2-13.3
		c-7.3,0-12.4,5.7-12.4,13.3c0,7.8,5.4,12.9,12.4,12.9C1484,165.4,1488.9,160.1,1488.9,152.4"/>
	<path class="st0" d="M1509.4,161v-22h-5.6v-10.5h5.6v-15.6l12.7-1.4v16.9h12.9V139h-12.9v20.2c0,4.1,1.3,6,4.2,6
		c1.6,0,3.9-0.6,6-1.6l3.3,10.2c-3.1,1.6-6.2,2.9-12.7,2.9C1514.8,176.8,1509.4,171.7,1509.4,161"/>
	<path class="st0" d="M1539.4,114c0-4.3,3.6-7.8,7.9-7.8c4.4,0,8,3.5,8,7.8s-3.6,7.8-8,7.8C1543,121.8,1539.4,118.3,1539.4,114
		 M1540.8,128.5h12.7V176h-12.7V128.5z"/>
	<path class="st0" d="M1560,152.2c0-14.2,10.1-24.5,25.2-24.5c14.8,0,25.3,9.9,25.3,24.5c0,14.6-10.5,24.5-25.3,24.5
		C1570.2,176.8,1560,166.4,1560,152.2 M1597.6,152.2c0-7.8-5.2-13.1-12.4-13.1c-7.4,0-12.4,5.6-12.4,13.1c0,7.4,5.2,13.1,12.4,13.1
		C1592.2,165.4,1597.6,159.9,1597.6,152.2"/>
	<path class="st0" d="M1662.9,147.8V176h-12.8v-25c0-9.1-3.2-11.9-9.1-11.9c-6.4,0-10.8,4.5-10.8,12.9V176h-12.7v-47.5h12.7v6.1h0.2
		c3.9-4.6,9.3-6.9,15.2-6.9C1655.8,127.7,1662.9,133.2,1662.9,147.8"/>
	<path class="st0" d="M1692.7,121.9c0,8.1-6.5,14.9-14.9,14.9c-8.2,0-14.8-6.8-14.8-14.9c0-8.1,6.5-14.9,14.9-14.9
		C1686.3,107,1692.7,113.8,1692.7,121.9 M1688.8,121.9c0-6.1-4.7-11-10.8-11c-6.2,0-10.9,5-10.9,11.1c0,6.1,4.7,10.9,10.8,10.9
		C1684.1,132.9,1688.8,127.9,1688.8,121.9 M1680.9,123.9l3.5,5.4h-4l-3.1-4.9h-1.4v4.9h-3.4v-15.1h5.9c3.7,0,5.3,2.2,5.3,5.1
		C1683.8,121.7,1682.7,123.2,1680.9,123.9 M1676,121.3h1.7c1.6,0,2.5-0.8,2.5-2c0-1.1-0.8-2-2.5-2h-1.7V121.3z"/>
	<path class="st0" d="M1234,245.9c0-19.7,12.6-35.5,35.1-35.5c9.5,0,19.9,4,27.4,13.2l-10,8.5c-4.1-4.8-10.3-8.7-17.4-8.7
		c-11.9,0-20.8,8.7-20.8,22.5c0,12.8,8.5,22,20.8,22c7.2,0,13.4-3.7,17.4-8.7l10,8.6c-5.9,7.4-15.2,13-27.4,13
		C1250.3,280.7,1234,268.5,1234,245.9"/>
	<path class="st0" d="M1300.9,256.4c0-14.1,10.1-24.4,25.1-24.4c14.7,0,25.2,9.9,25.2,24.4s-10.5,24.4-25.2,24.4
		C1310.9,280.8,1300.9,270.6,1300.9,256.4 M1338.3,256.4c0-7.8-5.2-13.1-12.3-13.1c-7.4,0-12.3,5.6-12.3,13.1
		c0,7.4,5.1,13.1,12.3,13.1C1332.8,269.5,1338.3,264.1,1338.3,256.4"/>
	<path class="st0" d="M1432.9,252.6v27.5h-12.7v-24.4c0-7.6-2.3-12.3-8.2-12.3c-5.3,0-9.7,4.6-9.7,13.1v23.6h-12.7v-24.4
		c0-7.6-2.4-12.3-8.3-12.3c-5.7,0-10,4.6-10,13.1v23.6h-12.7v-47.3h12.7v6.3h0.1c3.7-4.6,8.8-7.1,14.1-7.1c6.2,0,11.1,2.3,14.1,7.6
		h0.2c3.9-4.9,9.7-7.6,16.5-7.6C1426.5,232,1432.9,238.1,1432.9,252.6"/>
	<path class="st0" d="M1491.5,256.5c0,14.6-9.5,24.3-22.7,24.3c-6,0-10.7-2.2-13.9-6.1h-0.2v24.5H1442v-66.4h12.7v5.4h0.2
		c3.6-4.1,8.5-6.2,14.3-6.2C1481.9,232,1491.5,242.2,1491.5,256.5 M1478.6,256.6c0-8.1-5.3-13.3-12.1-13.3
		c-7.3,0-12.3,5.7-12.3,13.3c0,7.8,5.4,12.9,12.3,12.9C1473.7,269.5,1478.6,264.3,1478.6,256.6"/>
	<path class="st0" d="M1544.5,232.4v47.3h-12V274h-0.3c-3.2,4.2-8,6.5-14.1,6.5c-13.1,0-22.6-9.7-22.6-24.3
		c0-14.3,9.6-24.5,22.3-24.5c5.6,0,10.5,2,13.8,6.1h0.3v-5.3L1544.5,232.4L1544.5,232.4z M1532.4,256.2c0-7.6-5-13.3-11.9-13.3
		c-6.8,0-12.2,5.1-12.2,13.3c0,7.6,5,12.9,12.1,12.9C1526.9,269.1,1532.4,264,1532.4,256.2"/>
	<path class="st0" d="M1599.8,252v28.1h-12.7v-24.9c0-9-3.2-11.8-9.1-11.8c-6.4,0-10.8,4.5-10.8,12.9V280h-12.7v-47.3h12.7v6.1h0.2
		c3.9-4.6,9.3-6.9,15.1-6.9C1592.8,232,1599.8,237.4,1599.8,252"/>
	<polygon class="st0" points="1650.9,232.8 1625.4,299.2 1612.4,299.2 1620.8,277.1 1602,232.8 1615.1,232.8 1626.8,262 1626.9,262 
		1637.7,232.8 	"/>
</g>
</svg>
