<svg xmlns="http://www.w3.org/2000/svg" viewBox="0 0 209.28 170.08"><defs><style>.cls-1{fill:#fff;}</style></defs><g id="Capa_2" data-name="Capa 2"><g id="Capa_1-2" data-name="Capa 1"><path class="cls-1" d="M209.28,20.13a85.38,85.38,0,0,1-24.66,6.76A43,43,0,0,0,203.5,3.14a86.15,86.15,0,0,1-27.27,10.42,43,43,0,0,0-73.16,39.16A121.88,121.88,0,0,1,14.57,7.86,43,43,0,0,0,27.86,65.18,42.68,42.68,0,0,1,8.41,59.81v.54a43,43,0,0,0,34.44,42.1,43,43,0,0,1-19.39.74A43,43,0,0,0,63.57,133a86.2,86.2,0,0,1-53.33,18.38A88.82,88.82,0,0,1,0,150.79a121.55,121.55,0,0,0,65.82,19.29c79,0,122.16-65.43,122.16-122.17q0-2.79-.12-5.55A87.07,87.07,0,0,0,209.28,20.13Z"/></g></g></svg>